<svg xmlns="http://www.w3.org/2000/svg" viewBox="0 0 100 120" fill="none">
  <rect width="100" height="120" fill="#09090b"/>
  <!-- Top cube (cyan) -->
  <polygon points="50,8 30,19 50,30 70,19" fill="#67e8f9"/>
  <polygon points="30,19 50,30 50,48 30,37" fill="#06b6d4"/>
  <polygon points="70,19 50,30 50,48 70,37" fill="#22d3ee"/>
  <!-- Middle cube (purple) -->
  <polygon points="40,29 20,40 40,51 60,40" fill="#a78bfa"/>
  <polygon points="20,40 40,51 40,69 20,58" fill="#7c3aed"/>
  <polygon points="60,40 40,51 40,69 60,58" fill="#8b5cf6"/>
  <!-- Bottom cube (pink) -->
  <polygon points="30,50 10,61 30,72 50,61" fill="#f472b6"/>
  <polygon points="10,61 30,72 30,90 10,79" fill="#db2777"/>
  <polygon points="50,61 30,72 30,90 50,79" fill="#ec4899"/>
</svg>
